<svg width="22" height="20" viewBox="0 0 22 20" fill="none" xmlns="http://www.w3.org/2000/svg">
<path d="M8.2502 20L7.8502 16.8C7.63353 16.7167 7.42953 16.6167 7.2382 16.5C7.04686 16.3833 6.8592 16.2583 6.6752 16.125L3.7002 17.375L0.950195 12.625L3.5252 10.675C3.50853 10.5583 3.5002 10.446 3.5002 10.338V9.663C3.5002 9.55433 3.50853 9.44167 3.5252 9.325L0.950195 7.375L3.7002 2.625L6.6752 3.875C6.85853 3.74167 7.0502 3.61667 7.2502 3.5C7.4502 3.38333 7.6502 3.28333 7.8502 3.2L8.2502 0H13.7502L14.1502 3.2C14.3669 3.28333 14.5712 3.38333 14.7632 3.5C14.9552 3.61667 15.1425 3.74167 15.3252 3.875L18.3002 2.625L21.0502 7.375L18.4752 9.325C18.4919 9.44167 18.5002 9.55433 18.5002 9.663V10.337C18.5002 10.4457 18.4835 10.5583 18.4502 10.675L21.0252 12.625L18.2752 17.375L15.3252 16.125C15.1419 16.2583 14.9502 16.3833 14.7502 16.5C14.5502 16.6167 14.3502 16.7167 14.1502 16.8L13.7502 20H8.2502ZM11.0502 13.5C12.0169 13.5 12.8419 13.1583 13.5252 12.475C14.2085 11.7917 14.5502 10.9667 14.5502 10C14.5502 9.03333 14.2085 8.20833 13.5252 7.525C12.8419 6.84167 12.0169 6.5 11.0502 6.5C10.0669 6.5 9.23753 6.84167 8.5622 7.525C7.88686 8.20833 7.54953 9.03333 7.5502 10C7.5502 10.9667 7.88786 11.7917 8.5632 12.475C9.23853 13.1583 10.0675 13.5 11.0502 13.5Z" fill="#7C5DFA"/>
</svg>
